# xmcd
#
# Track frame offsets: 
#        150
#        12292
#        27789
#        32807
#        47472
#        60668
#        73519
#        86016
#        97866
#        110463
#        123765
#        138240
#        153410
#        164900
#        178988
#        193268
#        209030
#        223353
#        235252
#        247950
#        261153
#        274928
#        287867
#        304094
#        317814
#
# Disc length: 4388 seconds
#
# Revision: 1
# Processed by: cddbd v1.5.2PL0 Copyright (c) Steve Scherf et al.
# Submitted via: ExactAudioCopy v1.0b4
#
DISCID=78112219
DTITLE=Various Artist - Definitive Delta Blues  disc 2
DYEAR=2012
DGENRE=Blues
TTITLE0=Big Joe Williams - Delta Blues
TTITLE1=Muddy Waters - Country Blues
TTITLE2=David 'Honeyboy' Edwards - Stagolee
TTITLE3=Arthur 'Big Boy' Crudup - Death Valley Blues
TTITLE4=Robert Lockwood Jr - Black Spider Blues
TTITLE5=Tommy McClennan - Highway No.51
TTITLE6=Mississippi John Hurt - Candy Man Blues
TTITLE7=Robert Johnson - Hellhound On My Trail
TTITLE8=Elmore James - Early In The Morning
TTITLE9=Sleepy John Estes - Hobo Jungle Blues
TTITLE10=Papa Charlie McCoy - Motherless And Fatherless Blues
TTITLE11=John Lee Hooker - Shaky Grove Blues
TTITLE12=Bukka White - Aberdeen Mississippi Blues
TTITLE13=Bo Carter - Banana In Your Fruit Basket
TTITLE14=Son House - My Black Mama (Part 1)
TTITLE15=Ishman Bracey - Left Alone Blues
TTITLE16=Blind Willie Johnson - Nobody's Fault But Mine
TTITLE17=Luther Huff - 1951 Blues
TTITLE18=Skip James - Hard Time Killin' Floor Blues
TTITLE19=Robert Petway - Rockin' Chair Blues
TTITLE20=Kansas Joe McCoy - Something Gonna Happen To You
TTITLE21=Joe Hill Louis - Joe's Jump
TTITLE22=Tommy Johnson - Cool Drink Water Of Blues
TTITLE23=Big Joe Williams - Rootin' Ground Hog
TTITLE24=Robert Johnson - Cross Road Blues
EXTD=
EXTT0=
EXTT1=
EXTT2=
EXTT3=
EXTT4=
EXTT5=
EXTT6=
EXTT7=
EXTT8=
EXTT9=
EXTT10=
EXTT11=
EXTT12=
EXTT13=
EXTT14=
EXTT15=
EXTT16=
EXTT17=
EXTT18=
EXTT19=
EXTT20=
EXTT21=
EXTT22=
EXTT23=
EXTT24=
PLAYORDER=
